<?xml version="1.0" encoding="utf-8"?>
<!-- Generator: Adobe Illustrator 26.1.0, SVG Export Plug-In . SVG Version: 6.00 Build 0)  -->
<svg version="1.1" id="Layer_1" xmlns="http://www.w3.org/2000/svg" xmlns:xlink="http://www.w3.org/1999/xlink" x="0px" y="0px"
	 viewBox="0 0 325.7 402.1" style="enable-background:new 0 0 325.7 402.1;" xml:space="preserve">
<style type="text/css">
	.st0{fill:#007304;}
	.st1{fill:#28C72D;}
	.st2{fill:#00A606;}
	.st3{fill:#133337;}
</style>
<path class="st0" d="M209.9,215.1c0,0-3.1,56.3,56.1,47.5C266,262.6,268.2,203.2,209.9,215.1z"/>
<path class="st1" d="M238,190.6c0,0,29.7,61.8,87.6,17.7C325.7,208.4,293.1,143.8,238,190.6z"/>
<path class="st0" d="M268.5,148.1c0,0,29.3,31.3,55.6-5.8C324,142.2,292.6,109.8,268.5,148.1z"/>
<path class="st1" d="M190.6,166.6c0,0,28,12.2,34.7-19.5C225.3,147.2,195.6,134.8,190.6,166.6z"/>
<path class="st2" d="M229.9,123.9c0,0,62.2,16.8,66.4-51.4C296.3,72.5,230.4,55.9,229.9,123.9z"/>
<path class="st2" d="M130.5,93.3c0,0,25.8-69.6-52-81.6C78.5,11.7,52.6,85.5,130.5,93.3z"/>
<path class="st1" d="M81.5,94.5c0,0-11-40.7-51-20.6C30.5,73.9,42.9,116.6,81.5,94.5z"/>
<path class="st2" d="M104.7,149c0,0-38.6-71.5-104.7-16.1C0,132.8,42.1,207.5,104.7,149z"/>
<path class="st2" d="M65.3,190.9c0,0-34.4-29-57.2,12.9C8,203.8,44.8,233.8,65.3,190.9z"/>
<path class="st0" d="M79.1,219.1c0,0-28.4-14.1-37,18.4C42,237.5,72.2,251.9,79.1,219.1z"/>
<path class="st1" d="M126.9,184.9c0,0-16.5-19.2-32.9,2C94,186.9,111.7,206.8,126.9,184.9z"/>
<path class="st0" d="M139.3,120c0,0-8.4-26.9-34.6-12.5C104.7,107.6,114.1,135.8,139.3,120z"/>
<path class="st0" d="M156.3,52.8c0,0,27.4-30.8-10.5-52.8C145.8,0,117.5,33,156.3,52.8z"/>
<path class="st1" d="M189.9,105.1c0,0,84.3-22.2,43.3-105.1C233.2,0,144.7,25,189.9,105.1z"/>
<path class="st3" d="M237.5,145.6c-1.8,17.6-13,31.7-26,41.2c-6.6,4.9-13.6,8.4-21.2,10.8c-3.8,1.2-7.6,2.1-11.4,2.8
	c-0.1,0-0.3,0-0.4,0.1c1.1-10,2.2-20.2,2.6-31c0.2-7.1-0.6-13.8-1.8-20.3c2.8-1.8,5.9-3.3,9.1-5.4c3.7-2.3,6.7-5.3,9.5-8.4
	c5.5-6.4,8.7-14.3,9.9-22.2c-2.5,7.6-6.8,14.6-12.6,19.5c-3,2.4-6.1,4.7-9.5,6c-2.4,1.1-5.1,1.9-7.9,3c-1.8-7.4-4.3-14.6-7.3-21.4
	c-6.5-15-15.2-28.4-24.3-41.3c6.2,14.5,11.9,29.3,15,44.3c1.6,7.5,2.5,15,2.6,22.4c0.1,7.4-0.3,14.9-2,21.4c-1.1,4.3-2.3,8.6-3.6,13
	c-8-4.4-15.6-9.6-22.3-16c-9.4-8.9-16.9-20.4-18.7-34c-0.9,13.7,4.6,27.6,12.8,39.1c6.6,9.3,14.9,17.4,23.9,24.5
	c-1.9,5.9-3.9,11.9-5.8,17.8c-2.3,7-4.5,14.1-6.7,21.2c-26.4-3.3-59.9-23.7-64.8-57.8c-1.4,9.5-0.1,19.7,3.4,29.2
	c3.5,9.5,8.9,18.4,15.5,26.4c6.5,8,14.9,15.2,24,20.8c4.6,2.8,9.3,5.3,14.3,7.5c-8.2,29.9-14.9,60.9-17.4,93.6c-0.1,1-0.2,2-0.2,3.1
	c-1,15.1-1.1,30.7,0.2,46.6h69.8c-5.5-14.8-9.4-31.2-11.7-48.1c-0.1-0.5-0.1-1-0.2-1.5c-3.8-28.2-3.8-58.1-1.8-88.3
	c0.9-13.6,2.2-27.3,3.6-41.1c0.6-0.2,1.2-0.4,1.8-0.6c2.4-0.8,4.7-1.6,6.9-2.6c4.5-1.9,8.8-4,12.9-6.5c8.2-4.8,15.8-11.1,21.8-18.1
	C231.5,181.5,239.8,163.2,237.5,145.6z"/>
</svg>
